<svg width="9" height="11" viewBox="0 0 9 11" fill="none" xmlns="http://www.w3.org/2000/svg">
<path d="M7.41667 6.27586C7.41667 6.88967 7.24561 7.48969 6.92512 8.00004C6.60463 8.5104 6.14911 8.90818 5.61616 9.14307C5.08321 9.37797 4.49677 9.43942 3.93099 9.31968C3.36521 9.19993 2.84551 8.90436 2.43761 8.47033C2.0297 8.03631 1.75192 7.48332 1.63938 6.88131C1.52684 6.2793 1.5846 5.6553 1.80535 5.08822C2.02611 4.52114 2.39994 4.03645 2.87959 3.69544C3.35923 3.35443 3.92314 3.17241 4.5 3.17241H6.30308L5.25775 4.285L5.66667 4.72414L7.41667 2.86207L5.66667 1L5.25775 1.43883L6.30396 2.55172H4.5C3.80777 2.55172 3.13108 2.77014 2.55551 3.17935C1.97993 3.58857 1.53133 4.1702 1.26642 4.8507C1.00152 5.53119 0.932205 6.27999 1.06725 7.0024C1.2023 7.72482 1.53564 8.38839 2.02513 8.90922C2.51461 9.43005 3.13825 9.78474 3.81718 9.92844C4.49612 10.0721 5.19985 9.99839 5.83939 9.71651C6.47893 9.43464 7.02556 8.95731 7.41014 8.34488C7.79473 7.73245 8 7.01243 8 6.27586H7.41667Z" fill="#704DE7" stroke="#704DE7" stroke-linejoin="round"/>
</svg>
