<svg width="36" height="35" viewBox="0 0 36 35" fill="none" xmlns="http://www.w3.org/2000/svg">
<path d="M10.8018 22.5391C10.359 22.5391 10 22.1718 10 21.7188C10 21.2981 10.3095 20.9514 10.7082 20.9039L10.8018 20.8984H19.586C19.586 19.5393 20.6629 18.4375 21.9912 18.4375H23.5947C24.9231 18.4375 26 19.5393 26 20.8984V22.5391C26 23.8982 24.9231 25 23.5947 25H21.9912C20.6629 25 19.586 23.8982 19.586 22.5391L10.8018 22.5391ZM23.5947 20.0781H21.9912C21.5801 20.0781 21.2412 20.3948 21.1949 20.8028L21.1895 20.8984V22.5391C21.1895 22.9598 21.499 23.3065 21.8977 23.3539L21.9912 23.3594H23.5947C24.0059 23.3594 24.3448 23.0427 24.3911 22.6348L24.3965 22.5391V20.8985C24.3965 20.4778 24.087 20.1311 23.6883 20.0836L23.5947 20.0781ZM14.0088 10C15.3371 10 16.414 11.1018 16.414 12.4609H25.1982C25.641 12.4609 26 12.8283 26 13.2813C26 13.7019 25.6905 14.0486 25.2918 14.0961L25.1982 14.1016H16.414C16.414 15.4607 15.3371 16.5625 14.0088 16.5625H12.4053C11.0769 16.5625 10 15.4607 10 14.1016V12.4609C10 11.1019 11.0769 10 12.4053 10L14.0088 10ZM14.0088 11.6406H12.4053C11.9941 11.6406 11.6552 11.9573 11.6089 12.3653L11.6035 12.4609V14.1016C11.6035 14.5222 11.913 14.869 12.3117 14.9164L12.4052 14.9219H14.0087C14.4199 14.9219 14.7588 14.6052 14.8051 14.1972L14.8105 14.1016V12.4609C14.8105 12.0403 14.501 11.6936 14.1023 11.6461L14.0088 11.6406Z" fill="black"/>
</svg>
